<svg width="58" height="22" viewBox="0 0 58 22" fill="none" xmlns="http://www.w3.org/2000/svg">
<g clip-path="url(#clip0_73347_691)">
<g clip-path="url(#clip1_73347_691)">
<path fill-rule="evenodd" clip-rule="evenodd" d="M9 5H14V17H9V19H15H16V18V4V3H15H9V5ZM4.29289 6.70711L7.53553 9.94975H0V11.9497H7.53553L4.29289 15.1924L5.70711 16.6066L10.6569 11.6569L11.364 10.9497L10.6569 10.2426L5.70711 5.29289L4.29289 6.70711Z" fill="#BDBDBD"/>
</g>
<path d="M31.12 8.392C31.12 8.66933 31.088 8.94667 31.024 9.224C30.9707 9.49067 30.88 9.74667 30.752 9.992C30.624 10.2267 30.4533 10.4347 30.24 10.616C30.0373 10.7973 29.792 10.936 29.504 11.032V11.128C29.76 11.192 30 11.288 30.224 11.416C30.4587 11.544 30.6613 11.72 30.832 11.944C31.0027 12.1573 31.136 12.424 31.232 12.744C31.3387 13.0533 31.392 13.4213 31.392 13.848C31.392 14.424 31.2907 14.9253 31.088 15.352C30.896 15.768 30.6293 16.1093 30.288 16.376C29.9573 16.6427 29.568 16.84 29.12 16.968C28.672 17.096 28.1973 17.16 27.696 17.16C27.5467 17.16 27.3547 17.16 27.12 17.16C26.8853 17.16 26.6293 17.1493 26.352 17.128C26.0853 17.1173 25.808 17.096 25.52 17.064C25.232 17.032 24.9653 16.984 24.72 16.92V5.88C25.072 5.816 25.504 5.76267 26.016 5.72C26.5387 5.66667 27.056 5.64 27.568 5.64C28.0373 5.64 28.4853 5.67733 28.912 5.752C29.3493 5.82667 29.728 5.96533 30.048 6.168C30.3787 6.37067 30.64 6.65333 30.832 7.016C31.024 7.368 31.12 7.82667 31.12 8.392ZM27.744 15.416C28.192 15.416 28.56 15.272 28.848 14.984C29.136 14.696 29.28 14.2747 29.28 13.72C29.28 13.368 29.232 13.0907 29.136 12.888C29.04 12.6747 28.912 12.5147 28.752 12.408C28.592 12.2907 28.4053 12.216 28.192 12.184C27.9893 12.152 27.776 12.136 27.552 12.136H26.736V15.32C26.8213 15.352 26.9653 15.3787 27.168 15.4C27.3813 15.4107 27.5733 15.416 27.744 15.416ZM27.2 10.552C27.3173 10.552 27.4507 10.5467 27.6 10.536C27.76 10.5147 27.888 10.4933 27.984 10.472C28.2933 10.3547 28.5547 10.1627 28.768 9.896C28.992 9.62933 29.104 9.28267 29.104 8.856C29.104 8.57867 29.0667 8.344 28.992 8.152C28.9173 7.96 28.816 7.81067 28.688 7.704C28.56 7.58667 28.4053 7.50667 28.224 7.464C28.0533 7.41067 27.8667 7.384 27.664 7.384C27.2267 7.384 26.9173 7.40533 26.736 7.448V10.552H27.2ZM34.6758 11.304L32.1958 5.8H34.6278L35.9238 9L36.2278 10.216L36.5158 9L37.8758 5.8H40.0518L37.4918 11.192L40.1798 17H37.8278L36.3238 13.56L35.9878 12.312L35.6678 13.56L34.1638 17H31.9398L34.6758 11.304ZM40.2765 11.4C40.2765 9.50133 40.6018 8.056 41.2525 7.064C41.9032 6.072 42.8952 5.576 44.2285 5.576C44.9218 5.576 45.5192 5.71467 46.0205 5.992C46.5218 6.25867 46.9325 6.648 47.2525 7.16C47.5725 7.66133 47.8072 8.27467 47.9565 9C48.1165 9.71467 48.1965 10.5147 48.1965 11.4C48.1965 13.2987 47.8605 14.744 47.1885 15.736C46.5272 16.728 45.5405 17.224 44.2285 17.224C43.5245 17.224 42.9218 17.0907 42.4205 16.824C41.9298 16.5467 41.5245 16.1573 41.2045 15.656C40.8845 15.144 40.6498 14.5307 40.5005 13.816C40.3512 13.0907 40.2765 12.2853 40.2765 11.4ZM42.3885 11.4C42.3885 11.9653 42.4205 12.4933 42.4845 12.984C42.5485 13.464 42.6552 13.88 42.8045 14.232C42.9538 14.584 43.1405 14.8613 43.3645 15.064C43.5992 15.2667 43.8872 15.368 44.2285 15.368C44.8472 15.368 45.3112 15.0533 45.6205 14.424C45.9298 13.7947 46.0845 12.7867 46.0845 11.4C46.0845 10.856 46.0525 10.344 45.9885 9.864C45.9245 9.37333 45.8178 8.952 45.6685 8.6C45.5298 8.23733 45.3432 7.95467 45.1085 7.752C44.8738 7.53867 44.5805 7.432 44.2285 7.432C43.0018 7.432 42.3885 8.75467 42.3885 11.4ZM57.4295 19H56.0055L55.8135 17H50.0535L49.8615 19H48.4375V15.144H49.4135C49.4775 15.0267 49.5735 14.76 49.7015 14.344C49.8402 13.928 49.9788 13.3413 50.1175 12.584C50.2562 11.8267 50.3682 10.888 50.4535 9.768C50.5495 8.648 50.5922 7.32533 50.5815 5.8H56.2775V15.144H57.4295V19ZM54.2615 15.144V7.656H52.4855C52.4322 9.544 52.3042 11.128 52.1015 12.408C51.9095 13.688 51.7122 14.6 51.5095 15.144H54.2615Z" fill="white"/>
</g>
<defs>
<clipPath id="clip0_73347_691">
<rect width="58" height="22" fill="white"/>
</clipPath>
<clipPath id="clip1_73347_691">
<rect width="16" height="16" fill="white" transform="translate(0 3)"/>
</clipPath>
</defs>
</svg>
